<svg width="1600" height="1000" viewBox="0 0 1600 1000" fill="none" xmlns="http://www.w3.org/2000/svg">
  <rect width="1600" height="1000" fill="#2D3134"/>
  <rect width="1600" height="1000" fill="url(#sky)"/>
  <rect y="620" width="1600" height="380" fill="url(#ground)"/>
  <rect x="830" y="300" width="500" height="260" rx="6" fill="#3B302B"/>
  <rect x="690" y="360" width="300" height="230" rx="6" fill="#5D5147"/>
  <rect x="1020" y="360" width="120" height="200" fill="#161719"/>
  <rect x="1165" y="360" width="115" height="200" fill="#161719"/>
  <rect x="720" y="390" width="190" height="170" fill="#1A1B1D"/>
  <rect x="853" y="330" width="172" height="145" fill="#C18A54"/>
  <rect x="1045" y="330" width="118" height="145" fill="#D09B62"/>
  <rect x="1188" y="330" width="112" height="145" fill="#D39D66"/>
  <rect x="840" y="483" width="450" height="18" fill="#101113"/>
  <rect x="665" y="590" width="685" height="18" fill="#A79A87"/>
  <rect x="632" y="604" width="760" height="18" fill="#D4C8B7"/>
  <path d="M290 730C410 692 560 680 725 700C870 719 1033 786 1280 752C1370 740 1460 718 1600 680V1000H0V760C96 785 183 764 290 730Z" fill="#887C66"/>
  <path d="M0 778C149 790 280 760 396 732C495 707 585 697 690 705C885 721 1024 811 1229 782C1364 763 1471 707 1600 695V1000H0V778Z" fill="#6C6658"/>
  <rect x="773" y="420" width="92" height="170" fill="#D4B083"/>
  <rect x="782" y="432" width="74" height="146" fill="#F5DAB2"/>
  <rect x="1330" y="332" width="10" height="228" fill="#0E0F12"/>
  <circle cx="245" cy="172" r="56" fill="#F0C58E" fill-opacity="0.24"/>
  <path d="M1350 518C1410 570 1440 640 1448 742H1320C1318 652 1328 593 1350 518Z" fill="#393F39"/>
  <path d="M150 624C208 544 286 520 383 552C334 573 300 614 275 674L150 624Z" fill="#434A3E"/>
  <defs>
    <linearGradient id="sky" x1="800" y1="0" x2="800" y2="620" gradientUnits="userSpaceOnUse">
      <stop stop-color="#69737A"/>
      <stop offset="0.45" stop-color="#505055"/>
      <stop offset="1" stop-color="#262320"/>
    </linearGradient>
    <linearGradient id="ground" x1="800" y1="620" x2="800" y2="1000" gradientUnits="userSpaceOnUse">
      <stop stop-color="#463B34"/>
      <stop offset="1" stop-color="#2A2724"/>
    </linearGradient>
  </defs>
</svg>
